# 3ds Max Wavefront OBJ Exporter v0.97b - (c)2007 guruware
# File Created: 06.10.2016 10:34:05

mtllib barrel2.mtl

#
# object Barrel2_LOD1
#

v  45.9907 153.4440 -16.7392
v  45.9907 153.4440 16.7393
v  53.4114 102.2960 19.4402
v  53.4114 102.2960 -19.4402
v  24.4711 153.4440 -42.3852
v  28.4196 102.2960 -49.2242
v  -8.4987 153.4440 -48.1987
v  -9.8700 102.2960 -55.9757
v  -37.4919 153.4440 -31.4595
v  -43.5414 102.2960 -36.5356
v  -48.9423 153.4440 -0.0000
v  -56.8392 102.2960 -0.0000
v  -37.4920 153.4440 31.4595
v  -43.5414 102.2960 36.5355
v  -8.4988 153.4440 48.1987
v  -9.8701 102.2960 55.9757
v  24.4711 153.4440 42.3853
v  28.4196 102.2960 49.2242
v  21.2661 152.4107 -36.8340
v  39.9672 152.4107 -14.5469
v  -7.3857 152.4107 -41.8861
v  -32.5816 152.4107 -27.3392
v  -42.5322 152.4107 -0.0000
v  -32.5816 152.4107 27.3392
v  -7.3857 152.4107 41.8861
v  21.2661 152.4107 36.8340
v  39.9672 152.4107 14.5469
v  21.6698 147.7078 -37.5332
v  40.7259 147.7078 -14.8230
v  -7.5259 147.7078 -42.6812
v  -33.2001 147.7078 -27.8582
v  -43.3396 147.7078 -0.0000
v  -33.2001 147.7078 27.8582
v  -7.5259 147.7078 42.6812
v  21.6698 147.7078 37.5332
v  40.7259 147.7078 14.8230
v  -0.0000 147.7079 0.0000
v  53.4114 51.1480 19.4402
v  45.9907 -0.0000 16.7393
v  45.9907 -0.0000 -16.7392
v  53.4114 51.1480 -19.4402
v  24.4711 -0.0000 -42.3852
v  28.4196 51.1480 -49.2242
v  -8.4987 -0.0000 -48.1987
v  -9.8700 51.1480 -55.9757
v  -37.4919 -0.0000 -31.4595
v  -43.5414 51.1480 -36.5356
v  -48.9423 -0.0000 -0.0000
v  -56.8392 51.1480 -0.0000
v  -37.4920 -0.0000 31.4595
v  -43.5414 51.1480 36.5355
v  -8.4988 -0.0000 48.1987
v  -9.8701 51.1480 55.9757
v  24.4711 -0.0000 42.3853
v  28.4196 51.1480 49.2242
v  39.9672 1.0332 -14.5469
v  21.2661 1.0332 -36.8340
v  -7.3857 1.0332 -41.8861
v  -32.5816 1.0332 -27.3392
v  -42.5322 1.0332 -0.0000
v  -32.5816 1.0332 27.3392
v  -7.3857 1.0332 41.8861
v  21.2661 1.0332 36.8340
v  39.9672 1.0332 14.5469
v  40.7259 5.7362 -14.8230
v  21.6698 5.7362 -37.5332
v  -7.5259 5.7362 -42.6812
v  -33.2001 5.7362 -27.8582
v  -43.3396 5.7362 -0.0000
v  -33.2001 5.7362 27.8582
v  -7.5259 5.7362 42.6812
v  21.6698 5.7362 37.5332
v  40.7259 5.7362 14.8230
v  -0.0000 5.7361 0.0000
# 74 vertices

vn 0.6331 0.7390 -0.2304
vn 0.6331 0.7390 0.2304
vn 0.9370 0.0753 0.3411
vn 0.9370 0.0753 -0.3410
vn 0.3369 0.7390 -0.5835
vn 0.4986 0.0753 -0.8636
vn -0.1170 0.7390 -0.6635
vn -0.1732 0.0753 -0.9820
vn -0.5161 0.7390 -0.4331
vn -0.7639 0.0753 -0.6410
vn -0.6737 0.7390 -0.0000
vn -0.9972 0.0753 -0.0000
vn -0.5161 0.7390 0.4331
vn -0.7639 0.0753 0.6410
vn -0.1170 0.7390 0.6635
vn -0.1732 0.0753 0.9820
vn 0.3369 0.7390 0.5835
vn 0.4986 0.0753 0.8636
vn -0.3722 0.6677 0.6447
vn -0.6995 0.6677 0.2546
vn 0.1293 0.6677 0.7331
vn 0.5702 0.6677 0.4785
vn 0.7444 0.6677 0.0000
vn 0.5702 0.6677 -0.4785
vn 0.1293 0.6677 -0.7331
vn -0.3722 0.6677 -0.6447
vn -0.6995 0.6677 -0.2546
vn -0.4098 0.5728 0.7099
vn -0.7703 0.5728 0.2804
vn 0.1423 0.5728 0.8072
vn 0.6279 0.5728 0.5269
vn 0.8197 0.5728 0.0000
vn 0.6279 0.5728 -0.5269
vn 0.1423 0.5728 -0.8072
vn -0.4098 0.5728 -0.7099
vn -0.7703 0.5728 -0.2804
vn -0.0000 1.0000 0.0000
vn 0.9370 -0.0753 0.3411
vn 0.6331 -0.7390 0.2304
vn 0.6331 -0.7390 -0.2304
vn 0.9370 -0.0753 -0.3410
vn 0.3369 -0.7390 -0.5835
vn 0.4986 -0.0753 -0.8636
vn -0.1170 -0.7390 -0.6635
vn -0.1732 -0.0753 -0.9820
vn -0.5161 -0.7390 -0.4331
vn -0.7639 -0.0753 -0.6410
vn -0.6737 -0.7390 -0.0000
vn -0.9972 -0.0753 -0.0000
vn -0.5161 -0.7390 0.4331
vn -0.7639 -0.0753 0.6410
vn -0.1170 -0.7390 0.6635
vn -0.1732 -0.0753 0.9820
vn 0.3369 -0.7390 0.5835
vn 0.4986 -0.0753 0.8636
vn -0.6995 -0.6677 0.2546
vn -0.3722 -0.6677 0.6447
vn 0.1293 -0.6677 0.7331
vn 0.5702 -0.6677 0.4785
vn 0.7444 -0.6677 0.0000
vn 0.5702 -0.6677 -0.4785
vn 0.1293 -0.6677 -0.7331
vn -0.3722 -0.6677 -0.6447
vn -0.6995 -0.6677 -0.2546
vn -0.7703 -0.5728 0.2804
vn -0.4098 -0.5728 0.7099
vn 0.1423 -0.5728 0.8072
vn 0.6279 -0.5728 0.5269
vn 0.8197 -0.5728 0.0000
vn 0.6279 -0.5728 -0.5269
vn 0.1423 -0.5728 -0.8072
vn -0.4098 -0.5728 -0.7099
vn -0.7703 -0.5728 -0.2804
vn -0.0000 -1.0000 0.0000
# 74 vertex normals

vt 0.9955 0.5305 0.9390
vt 0.8837 0.5305 0.9390
vt 0.8837 0.3548 1.0905
vt 0.9955 0.3548 1.0905
vt 0.1136 0.5305 0.9481
vt 0.0031 0.5305 0.9390
vt 0.0031 0.3548 1.0905
vt 0.1136 0.3548 1.1011
vt 0.2224 0.5305 0.9513
vt 0.2224 0.3548 1.1048
vt 0.3319 0.5305 0.9432
vt 0.3319 0.3548 1.0954
vt 0.4434 0.5305 0.9372
vt 0.4434 0.3548 1.0885
vt 0.5548 0.5305 0.9432
vt 0.5548 0.3548 1.0954
vt 0.6643 0.5305 0.9513
vt 0.6643 0.3548 1.1048
vt 0.7731 0.5305 0.9481
vt 0.7731 0.3548 1.1011
vt 0.1763 0.8597 0.0000
vt 0.0819 0.8262 0.0000
vt 0.0944 0.8115 0.0000
vt 0.1764 0.8407 0.0000
vt 0.0320 0.7403 0.0000
vt 0.0510 0.7369 0.0000
vt 0.0500 0.6423 0.0000
vt 0.0666 0.6517 0.0000
vt 0.1274 0.5780 0.0000
vt 0.1339 0.5959 0.0000
vt 0.2280 0.5775 0.0000
vt 0.2213 0.5954 0.0000
vt 0.3048 0.6410 0.0000
vt 0.2880 0.6506 0.0000
vt 0.3218 0.7389 0.0000
vt 0.3028 0.7357 0.0000
vt 0.2710 0.8253 0.0000
vt 0.2587 0.8107 0.0000
vt 0.1001 0.8048 0.0000
vt 0.1764 0.8319 0.0000
vt 0.0598 0.7353 0.0000
vt 0.0743 0.6561 0.0000
vt 0.1369 0.6041 0.0000
vt 0.2182 0.6037 0.0000
vt 0.2803 0.6551 0.0000
vt 0.2941 0.7342 0.0000
vt 0.2530 0.8040 0.0000
vt 0.1770 0.7144 0.0000
vt 0.8837 0.1791 1.0905
vt 0.8837 0.0033 0.9390
vt 0.9955 0.0033 0.9390
vt 0.9955 0.1791 1.0905
vt 0.0031 0.1791 1.0905
vt 0.0031 0.0033 0.9390
vt 0.1136 0.0033 0.9481
vt 0.1136 0.1791 1.1011
vt 0.2224 0.0033 0.9513
vt 0.2224 0.1791 1.1048
vt 0.3319 0.0033 0.9432
vt 0.3319 0.1791 1.0954
vt 0.4434 0.0033 0.9372
vt 0.4434 0.1791 1.0885
vt 0.5548 0.0033 0.9432
vt 0.5548 0.1791 1.0954
vt 0.6643 0.0033 0.9513
vt 0.6643 0.1791 1.1048
vt 0.7731 0.0033 0.9481
vt 0.7731 0.1791 1.1011
vt 0.5067 0.5647 0.0000
vt 0.5049 0.5837 0.0000
vt 0.5841 0.6199 0.0000
vt 0.5978 0.6064 0.0000
vt 0.6208 0.6980 0.0000
vt 0.6400 0.6963 0.0000
vt 0.5978 0.7815 0.0000
vt 0.6135 0.7923 0.0000
vt 0.5259 0.8313 0.0000
vt 0.5308 0.8496 0.0000
vt 0.4388 0.8241 0.0000
vt 0.4306 0.8414 0.0000
vt 0.3771 0.7633 0.0000
vt 0.3596 0.7714 0.0000
vt 0.3698 0.6773 0.0000
vt 0.3512 0.6724 0.0000
vt 0.4203 0.6063 0.0000
vt 0.4093 0.5908 0.0000
vt 0.5039 0.5929 0.0000
vt 0.5768 0.6262 0.0000
vt 0.6105 0.6981 0.0000
vt 0.5894 0.7750 0.0000
vt 0.5232 0.8208 0.0000
vt 0.4431 0.8142 0.0000
vt 0.3863 0.7582 0.0000
vt 0.3796 0.6791 0.0000
vt 0.4261 0.6138 0.0000
vt 0.4933 0.7095 0.0000
# 96 texture coords

g Barrel2_LOD1
usemtl wire_225198087
s 1
f 1/1/1 2/2/2 3/3/3 4/4/4 
f 5/5/5 1/6/1 4/7/4 6/8/6 
f 7/9/7 5/5/5 6/8/6 8/10/8 
f 9/11/9 7/9/7 8/10/8 10/12/10 
f 11/13/11 9/11/9 10/12/10 12/14/12 
f 13/15/13 11/13/11 12/14/12 14/16/14 
f 15/17/15 13/15/13 14/16/14 16/18/16 
f 17/19/17 15/17/15 16/18/16 18/20/18 
f 2/2/2 17/19/17 18/20/18 3/3/3 
f 1/21/1 5/22/5 19/23/19 20/24/20 
f 5/22/5 7/25/7 21/26/21 19/23/19 
f 7/25/7 9/27/9 22/28/22 21/26/21 
f 9/27/9 11/29/11 23/30/23 22/28/22 
f 11/29/11 13/31/13 24/32/24 23/30/23 
f 13/31/13 15/33/15 25/34/25 24/32/24 
f 15/33/15 17/35/17 26/36/26 25/34/25 
f 17/35/17 2/37/2 27/38/27 26/36/26 
f 2/37/2 1/21/1 20/24/20 27/38/27 
f 20/24/20 19/23/19 28/39/28 29/40/29 
f 19/23/19 21/26/21 30/41/30 28/39/28 
f 21/26/21 22/28/22 31/42/31 30/41/30 
f 22/28/22 23/30/23 32/43/32 31/42/31 
f 23/30/23 24/32/24 33/44/33 32/43/32 
f 24/32/24 25/34/25 34/45/34 33/44/33 
f 25/34/25 26/36/26 35/46/35 34/45/34 
f 26/36/26 27/38/27 36/47/36 35/46/35 
f 27/38/27 20/24/20 29/40/29 36/47/36 
f 29/40/29 28/39/28 37/48/37 
f 28/39/28 30/41/30 37/48/37 
f 30/41/30 31/42/31 37/48/37 
f 31/42/31 32/43/32 37/48/37 
f 32/43/32 33/44/33 37/48/37 
f 33/44/33 34/45/34 37/48/37 
f 34/45/34 35/46/35 37/48/37 
f 35/46/35 36/47/36 37/48/37 
f 36/47/36 29/40/29 37/48/37 
f 38/49/38 39/50/39 40/51/40 41/52/41 
f 3/3/3 38/49/38 41/52/41 4/4/4 
f 41/53/41 40/54/40 42/55/42 43/56/43 
f 43/56/43 6/8/6 4/7/4 41/53/41 
f 43/56/43 42/55/42 44/57/44 45/58/45 
f 45/58/45 8/10/8 6/8/6 43/56/43 
f 45/58/45 44/57/44 46/59/46 47/60/47 
f 47/60/47 10/12/10 8/10/8 45/58/45 
f 47/60/47 46/59/46 48/61/48 49/62/49 
f 49/62/49 12/14/12 10/12/10 47/60/47 
f 49/62/49 48/61/48 50/63/50 51/64/51 
f 51/64/51 14/16/14 12/14/12 49/62/49 
f 51/64/51 50/63/50 52/65/52 53/66/53 
f 53/66/53 16/18/16 14/16/14 51/64/51 
f 53/66/53 52/65/52 54/67/54 55/68/55 
f 55/68/55 18/20/18 16/18/16 53/66/53 
f 55/68/55 54/67/54 39/50/39 38/49/38 
f 38/49/38 3/3/3 18/20/18 55/68/55 
f 40/69/40 56/70/56 57/71/57 42/72/42 
f 42/72/42 57/71/57 58/73/58 44/74/44 
f 44/74/44 58/73/58 59/75/59 46/76/46 
f 46/76/46 59/75/59 60/77/60 48/78/48 
f 48/78/48 60/77/60 61/79/61 50/80/50 
f 50/80/50 61/79/61 62/81/62 52/82/52 
f 52/82/52 62/81/62 63/83/63 54/84/54 
f 54/84/54 63/83/63 64/85/64 39/86/39 
f 39/86/39 64/85/64 56/70/56 40/69/40 
f 56/70/56 65/87/65 66/88/66 57/71/57 
f 57/71/57 66/88/66 67/89/67 58/73/58 
f 58/73/58 67/89/67 68/90/68 59/75/59 
f 59/75/59 68/90/68 69/91/69 60/77/60 
f 60/77/60 69/91/69 70/92/70 61/79/61 
f 61/79/61 70/92/70 71/93/71 62/81/62 
f 62/81/62 71/93/71 72/94/72 63/83/63 
f 63/83/63 72/94/72 73/95/73 64/85/64 
f 64/85/64 73/95/73 65/87/65 56/70/56 
f 65/87/65 74/96/74 66/88/66 
f 66/88/66 74/96/74 67/89/67 
f 67/89/67 74/96/74 68/90/68 
f 68/90/68 74/96/74 69/91/69 
f 69/91/69 74/96/74 70/92/70 
f 70/92/70 74/96/74 71/93/71 
f 71/93/71 74/96/74 72/94/72 
f 72/94/72 74/96/74 73/95/73 
f 73/95/73 74/96/74 65/87/65 
# 63 polygons - 18 triangles

