# Blender v2.82 (sub 7) OBJ File: ''
# www.blender.org
mtllib arrow.mtl
o Cube.001
v 0.159414 2.020403 -0.109150
v -0.159414 2.020403 -0.109150
v 0.000000 3.946586 0.000000
v 0.321569 0.020404 0.220177
v -0.159414 2.020403 0.109150
v -0.321569 0.020404 0.220177
v -0.321569 0.020404 -0.220177
v 0.321569 0.020404 -0.220177
v 0.159414 2.020403 0.109150
vt 0.625000 0.500000
vt 0.625000 0.250000
vt 0.625000 0.500000
vt 0.375000 0.750000
vt 0.625000 1.000000
vt 0.375000 1.000000
vt 0.375000 0.000000
vt 0.375000 0.250000
vt 0.375000 0.500000
vt 0.125000 0.750000
vt 0.125000 0.500000
vt 0.625000 0.750000
vt 0.625000 1.000000
vt 0.625000 0.000000
vt 0.625000 0.250000
vt 0.625000 0.750000
vn -0.0000 0.0555 -0.9985
vn 0.0000 0.0560 -0.9984
vn 0.0000 0.0566 -0.9984
vn 0.0000 0.0554 0.9985
vn 0.0000 0.0555 0.9985
vn -0.9967 0.0808 0.0000
vn -0.9967 0.0809 0.0000
vn 0.0000 -1.0000 -0.0000
vn 0.9967 0.0808 0.0000
vn 0.9967 0.0809 -0.0000
vn 0.0000 0.0554 -0.9985
vn 0.0000 0.0560 0.9984
vn 0.0000 0.0566 0.9984
vn -0.9967 0.0816 0.0000
vn -0.9966 0.0825 0.0000
vn 0.9967 0.0816 0.0000
vn 0.9966 0.0825 0.0000
usemtl Material.001
s 1
f 1/1/1 2/2/2 3/3/3
f 4/4/4 5/5/5 6/6/4
f 6/7/6 2/2/7 7/8/6
f 8/9/8 6/10/8 7/11/8
f 8/9/9 9/12/10 4/4/9
f 7/8/11 1/1/1 8/9/11
f 5/5/5 9/12/12 3/13/13
f 2/2/7 5/14/14 3/15/15
f 9/12/10 1/1/16 3/16/17
f 4/4/4 9/12/12 5/5/5
f 6/7/6 5/14/14 2/2/7
f 8/9/8 4/4/8 6/10/8
f 8/9/9 1/1/16 9/12/10
f 7/8/11 2/2/2 1/1/1
