# Blender v2.79 (sub 0) OBJ File: ''
# www.blender.org
mtllib box.mtl
o Cube
v 0.381007 0.830918 -1.471193
v 1.504372 -0.590107 -0.623408
v -0.131398 -1.698362 -0.313530
v -1.254764 -0.277337 -1.161315
v 0.131399 1.698362 0.313530
v 1.254764 0.277337 1.161315
v -0.381008 -0.830918 1.471194
v -1.504372 0.590107 0.623408
vt 0.483771 0.350408
vt 0.687257 0.607903
vt 0.483771 0.607903
vt 0.076800 0.607903
vt 0.280285 0.350408
vt 0.280285 0.607903
vt 0.483771 0.092913
vt 0.687257 0.350408
vt 0.890742 0.350408
vt 0.483771 0.865397
vt 0.687257 0.865397
vt 0.076800 0.350408
vt 0.687257 0.092913
vt 0.890742 0.607902
vn 0.1248 -0.4337 -0.8924
vn -0.1248 0.4337 0.8924
vn 0.8179 0.5541 -0.1549
vn 0.5617 -0.7105 0.4239
vn -0.8179 -0.5541 0.1549
vn -0.5617 0.7105 -0.4239
usemtl Material
s off
f 2/1/1 4/2/1 1/3/1
f 8/4/2 6/5/2 5/6/2
f 5/6/3 2/1/3 1/3/3
f 6/7/4 3/8/4 2/1/4
f 7/9/5 4/2/5 3/8/5
f 5/10/6 4/2/6 8/11/6
f 2/1/1 3/8/1 4/2/1
f 8/4/2 7/12/2 6/5/2
f 5/6/3 6/5/3 2/1/3
f 6/7/4 7/13/4 3/8/4
f 7/9/5 8/14/5 4/2/5
f 5/10/6 1/3/6 4/2/6
