# 3ds Max Wavefront OBJ Exporter v0.97b - (c)2007 guruware
# File Created: 06.10.2016 10:36:18

mtllib barrel3.mtl

#
# object Barrel3_LOD1
#

v  43.5414 102.2960 -36.5356
v  37.4919 153.4440 -31.4595
v  48.9423 153.4440 0.0000
v  56.8392 102.2960 0.0000
v  9.8700 102.2960 -55.9757
v  8.4987 153.4440 -48.1987
v  -28.4196 102.2960 -49.2242
v  -24.4711 153.4440 -42.3852
v  -53.4114 102.2960 -19.4402
v  -45.9907 153.4440 -16.7392
v  -53.4114 102.2960 19.4401
v  -45.9907 153.4440 16.7392
v  -28.4196 102.2960 49.2242
v  -24.4711 153.4440 42.3852
v  9.8700 102.2960 55.9757
v  8.4987 153.4440 48.1987
v  43.5414 102.2960 36.5356
v  37.4919 153.4440 31.4595
v  32.5816 152.4107 -27.3392
v  42.5322 152.4107 -0.0000
v  7.3856 152.4107 -41.8861
v  -21.2661 152.4107 -36.8340
v  -39.9672 152.4107 -14.5469
v  -39.9672 152.4107 14.5469
v  -21.2661 152.4107 36.8340
v  7.3856 152.4107 41.8861
v  32.5816 152.4107 27.3392
v  33.2001 147.7078 -27.8582
v  43.3396 147.7078 -0.0000
v  7.5258 147.7078 -42.6812
v  -21.6698 147.7078 -37.5332
v  -40.7259 147.7078 -14.8230
v  -40.7259 147.7078 14.8230
v  -21.6698 147.7078 37.5332
v  7.5258 147.7078 42.6812
v  33.2001 147.7078 27.8582
v  -0.0000 147.7079 0.0000
v  48.9423 -0.0000 0.0000
v  37.4919 -0.0000 -31.4595
v  43.5414 51.1480 -36.5356
v  56.8392 51.1480 0.0000
v  8.4987 -0.0000 -48.1987
v  9.8700 51.1480 -55.9757
v  -24.4711 -0.0000 -42.3852
v  -28.4196 51.1480 -49.2242
v  -45.9907 -0.0000 -16.7392
v  -53.4114 51.1480 -19.4402
v  -45.9907 -0.0000 16.7392
v  -53.4114 51.1480 19.4401
v  -24.4711 -0.0000 42.3852
v  -28.4196 51.1480 49.2242
v  8.4987 -0.0000 48.1987
v  9.8700 51.1480 55.9757
v  37.4919 -0.0000 31.4595
v  43.5414 51.1480 36.5356
v  42.5322 1.0332 -0.0000
v  32.5816 1.0332 -27.3392
v  7.3856 1.0332 -41.8861
v  -21.2661 1.0332 -36.8340
v  -39.9672 1.0332 -14.5469
v  -39.9672 1.0332 14.5469
v  -21.2661 1.0332 36.8340
v  7.3856 1.0332 41.8861
v  32.5816 1.0332 27.3392
v  43.3396 5.7362 -0.0000
v  33.2001 5.7362 -27.8582
v  7.5258 5.7362 -42.6812
v  -21.6698 5.7362 -37.5332
v  -40.7259 5.7362 -14.8230
v  -40.7259 5.7362 14.8230
v  -21.6698 5.7362 37.5332
v  7.5258 5.7362 42.6812
v  33.2001 5.7362 27.8582
v  -0.0000 5.7361 0.0000
# 74 vertices

vn 0.7639 0.0753 -0.6410
vn 0.5161 0.7390 -0.4331
vn 0.6737 0.7390 0.0000
vn 0.9972 0.0753 0.0000
vn 0.1732 0.0753 -0.9820
vn 0.1170 0.7390 -0.6635
vn -0.4986 0.0753 -0.8636
vn -0.3369 0.7390 -0.5835
vn -0.9370 0.0753 -0.3410
vn -0.6331 0.7390 -0.2304
vn -0.9370 0.0753 0.3410
vn -0.6331 0.7390 0.2304
vn -0.4986 0.0753 0.8636
vn -0.3369 0.7390 0.5835
vn 0.1732 0.0753 0.9820
vn 0.1170 0.7390 0.6635
vn 0.7639 0.0753 0.6410
vn 0.5161 0.7390 0.4331
vn -0.5702 0.6677 0.4785
vn -0.7444 0.6677 -0.0000
vn -0.1293 0.6677 0.7331
vn 0.3722 0.6677 0.6447
vn 0.6995 0.6677 0.2546
vn 0.6995 0.6677 -0.2546
vn 0.3722 0.6677 -0.6447
vn -0.1293 0.6677 -0.7331
vn -0.5702 0.6677 -0.4785
vn -0.6279 0.5728 0.5269
vn -0.8197 0.5728 -0.0000
vn -0.1423 0.5728 0.8072
vn 0.4098 0.5728 0.7099
vn 0.7703 0.5728 0.2804
vn 0.7703 0.5728 -0.2804
vn 0.4098 0.5728 -0.7099
vn -0.1423 0.5728 -0.8072
vn -0.6279 0.5728 -0.5269
vn -0.0000 1.0000 -0.0000
vn 0.6737 -0.7390 0.0000
vn 0.5161 -0.7390 -0.4331
vn 0.7639 -0.0753 -0.6410
vn 0.9972 -0.0753 0.0000
vn 0.1170 -0.7390 -0.6635
vn 0.1732 -0.0753 -0.9820
vn -0.3369 -0.7390 -0.5835
vn -0.4986 -0.0753 -0.8636
vn -0.6331 -0.7390 -0.2304
vn -0.9370 -0.0753 -0.3410
vn -0.6331 -0.7390 0.2304
vn -0.9370 -0.0753 0.3410
vn -0.3369 -0.7390 0.5835
vn -0.4986 -0.0753 0.8636
vn 0.1170 -0.7390 0.6635
vn 0.1732 -0.0753 0.9820
vn 0.5161 -0.7390 0.4331
vn 0.7639 -0.0753 0.6410
vn -0.7444 -0.6677 -0.0000
vn -0.5702 -0.6677 0.4785
vn -0.1293 -0.6677 0.7331
vn 0.3722 -0.6677 0.6447
vn 0.6995 -0.6677 0.2546
vn 0.6995 -0.6677 -0.2546
vn 0.3722 -0.6677 -0.6447
vn -0.1293 -0.6677 -0.7331
vn -0.5702 -0.6677 -0.4785
vn -0.8197 -0.5728 -0.0000
vn -0.6279 -0.5728 0.5269
vn -0.1423 -0.5728 0.8072
vn 0.4098 -0.5728 0.7099
vn 0.7703 -0.5728 0.2804
vn 0.7703 -0.5728 -0.2804
vn 0.4098 -0.5728 -0.7099
vn -0.1423 -0.5728 -0.8072
vn -0.6279 -0.5728 -0.5269
vn -0.0000 -1.0000 -0.0000
# 74 vertex normals

vt 1.0481 0.3582 1.0893
vt 1.0408 0.5335 0.9380
vt 0.9396 0.5305 0.9372
vt 0.9396 0.3548 1.0885
vt 0.1681 0.3548 1.1048
vt 0.1681 0.5305 0.9513
vt 0.0586 0.5305 0.9432
vt 0.0586 0.3548 1.0954
vt 0.2769 0.3548 1.1011
vt 0.2769 0.5305 0.9481
vt 0.3874 0.3548 1.0905
vt 0.3874 0.5305 0.9390
vt 0.4993 0.3548 1.0905
vt 0.4993 0.5305 0.9390
vt 0.6098 0.3548 1.1011
vt 0.6098 0.5305 0.9481
vt 0.7186 0.3548 1.1048
vt 0.7186 0.5305 0.9513
vt 0.8281 0.3548 1.0954
vt 0.8281 0.5305 0.9432
vt 0.2267 0.8507 0.0000
vt 0.1260 0.8512 0.0000
vt 0.1327 0.8333 0.0000
vt 0.2202 0.8329 0.0000
vt 0.0493 0.7877 0.0000
vt 0.0660 0.7781 0.0000
vt 0.0323 0.6898 0.0000
vt 0.0512 0.6930 0.0000
vt 0.0830 0.6035 0.0000
vt 0.0953 0.6180 0.0000
vt 0.1777 0.5690 0.0000
vt 0.1776 0.5880 0.0000
vt 0.2721 0.6025 0.0000
vt 0.2597 0.6172 0.0000
vt 0.3220 0.6884 0.0000
vt 0.3030 0.6918 0.0000
vt 0.3040 0.7864 0.0000
vt 0.2874 0.7770 0.0000
vt 0.1358 0.8250 0.0000
vt 0.2172 0.8246 0.0000
vt 0.0737 0.7736 0.0000
vt 0.0600 0.6945 0.0000
vt 0.1010 0.6247 0.0000
vt 0.1776 0.5968 0.0000
vt 0.2539 0.6239 0.0000
vt 0.2943 0.6934 0.0000
vt 0.2797 0.7726 0.0000
vt 0.1770 0.7144 0.0000
vt -0.0492 0.0004 0.9323
vt 0.0586 0.0033 0.9432
vt 0.0586 0.1791 1.0954
vt -0.0577 0.1756 1.0828
vt -0.0491 0.3548 1.0858
vt -0.0491 0.1791 1.0858
vt 0.1681 0.0033 0.9513
vt 0.1681 0.1791 1.1048
vt 0.2769 0.0033 0.9481
vt 0.2769 0.1791 1.1011
vt 0.3874 0.0033 0.9390
vt 0.3874 0.1791 1.0905
vt 0.4993 0.0033 0.9390
vt 0.4993 0.1791 1.0905
vt 0.6098 0.0033 0.9481
vt 0.6098 0.1791 1.1011
vt 0.7186 0.0033 0.9513
vt 0.7186 0.1791 1.1048
vt 0.8281 0.0033 0.9432
vt 0.8281 0.1791 1.0954
vt 0.9396 0.0033 0.9372
vt 0.9396 0.1791 1.0885
vt 0.4557 0.5693 0.0000
vt 0.4606 0.5877 0.0000
vt 0.5478 0.5949 0.0000
vt 0.5560 0.5776 0.0000
vt 0.6094 0.6557 0.0000
vt 0.6269 0.6476 0.0000
vt 0.6167 0.7417 0.0000
vt 0.6353 0.7465 0.0000
vt 0.5663 0.8126 0.0000
vt 0.5773 0.8281 0.0000
vt 0.4816 0.8353 0.0000
vt 0.4799 0.8542 0.0000
vt 0.4025 0.7991 0.0000
vt 0.3888 0.8126 0.0000
vt 0.3658 0.7210 0.0000
vt 0.3466 0.7227 0.0000
vt 0.3888 0.6375 0.0000
vt 0.3730 0.6266 0.0000
vt 0.4632 0.5966 0.0000
vt 0.5434 0.6032 0.0000
vt 0.6001 0.6592 0.0000
vt 0.6068 0.7383 0.0000
vt 0.5604 0.8036 0.0000
vt 0.4825 0.8245 0.0000
vt 0.4097 0.7912 0.0000
vt 0.3759 0.7193 0.0000
vt 0.3970 0.6424 0.0000
vt 0.4933 0.7095 0.0000
# 98 texture coords

g Barrel3_LOD1
usemtl wire_225198087
s 1
f 1/1/1 2/2/2 3/3/3 4/4/4 
f 5/5/5 6/6/6 2/7/2 1/8/1 
f 7/9/7 8/10/8 6/6/6 5/5/5 
f 9/11/9 10/12/10 8/10/8 7/9/7 
f 11/13/11 12/14/12 10/12/10 9/11/9 
f 13/15/13 14/16/14 12/14/12 11/13/11 
f 15/17/15 16/18/16 14/16/14 13/15/13 
f 17/19/17 18/20/18 16/18/16 15/17/15 
f 4/4/4 3/3/3 18/20/18 17/19/17 
f 3/21/3 2/22/2 19/23/19 20/24/20 
f 2/22/2 6/25/6 21/26/21 19/23/19 
f 6/25/6 8/27/8 22/28/22 21/26/21 
f 8/27/8 10/29/10 23/30/23 22/28/22 
f 10/29/10 12/31/12 24/32/24 23/30/23 
f 12/31/12 14/33/14 25/34/25 24/32/24 
f 14/33/14 16/35/16 26/36/26 25/34/25 
f 16/35/16 18/37/18 27/38/27 26/36/26 
f 18/37/18 3/21/3 20/24/20 27/38/27 
f 20/24/20 19/23/19 28/39/28 29/40/29 
f 19/23/19 21/26/21 30/41/30 28/39/28 
f 21/26/21 22/28/22 31/42/31 30/41/30 
f 22/28/22 23/30/23 32/43/32 31/42/31 
f 23/30/23 24/32/24 33/44/33 32/43/32 
f 24/32/24 25/34/25 34/45/34 33/44/33 
f 25/34/25 26/36/26 35/46/35 34/45/34 
f 26/36/26 27/38/27 36/47/36 35/46/35 
f 27/38/27 20/24/20 29/40/29 36/47/36 
f 29/40/29 28/39/28 37/48/37 
f 28/39/28 30/41/30 37/48/37 
f 30/41/30 31/42/31 37/48/37 
f 31/42/31 32/43/32 37/48/37 
f 32/43/32 33/44/33 37/48/37 
f 33/44/33 34/45/34 37/48/37 
f 34/45/34 35/46/35 37/48/37 
f 35/46/35 36/47/36 37/48/37 
f 36/47/36 29/40/29 37/48/37 
f 38/49/38 39/50/39 40/51/40 41/52/41 
f 4/53/4 41/54/41 40/51/40 1/8/1 
f 39/50/39 42/55/42 43/56/43 40/51/40 
f 1/8/1 40/51/40 43/56/43 5/5/5 
f 42/55/42 44/57/44 45/58/45 43/56/43 
f 5/5/5 43/56/43 45/58/45 7/9/7 
f 44/57/44 46/59/46 47/60/47 45/58/45 
f 7/9/7 45/58/45 47/60/47 9/11/9 
f 46/59/46 48/61/48 49/62/49 47/60/47 
f 9/11/9 47/60/47 49/62/49 11/13/11 
f 48/61/48 50/63/50 51/64/51 49/62/49 
f 11/13/11 49/62/49 51/64/51 13/15/13 
f 50/63/50 52/65/52 53/66/53 51/64/51 
f 13/15/13 51/64/51 53/66/53 15/17/15 
f 52/65/52 54/67/54 55/68/55 53/66/53 
f 15/17/15 53/66/53 55/68/55 17/19/17 
f 54/67/54 38/69/38 41/70/41 55/68/55 
f 17/19/17 55/68/55 41/70/41 4/4/4 
f 38/71/38 56/72/56 57/73/57 39/74/39 
f 39/74/39 57/73/57 58/75/58 42/76/42 
f 42/76/42 58/75/58 59/77/59 44/78/44 
f 44/78/44 59/77/59 60/79/60 46/80/46 
f 46/80/46 60/79/60 61/81/61 48/82/48 
f 48/82/48 61/81/61 62/83/62 50/84/50 
f 50/84/50 62/83/62 63/85/63 52/86/52 
f 52/86/52 63/85/63 64/87/64 54/88/54 
f 54/88/54 64/87/64 56/72/56 38/71/38 
f 56/72/56 65/89/65 66/90/66 57/73/57 
f 57/73/57 66/90/66 67/91/67 58/75/58 
f 58/75/58 67/91/67 68/92/68 59/77/59 
f 59/77/59 68/92/68 69/93/69 60/79/60 
f 60/79/60 69/93/69 70/94/70 61/81/61 
f 61/81/61 70/94/70 71/95/71 62/83/62 
f 62/83/62 71/95/71 72/96/72 63/85/63 
f 63/85/63 72/96/72 73/97/73 64/87/64 
f 64/87/64 73/97/73 65/89/65 56/72/56 
f 65/89/65 74/98/74 66/90/66 
f 66/90/66 74/98/74 67/91/67 
f 67/91/67 74/98/74 68/92/68 
f 68/92/68 74/98/74 69/93/69 
f 69/93/69 74/98/74 70/94/70 
f 70/94/70 74/98/74 71/95/71 
f 71/95/71 74/98/74 72/96/72 
f 72/96/72 74/98/74 73/97/73 
f 73/97/73 74/98/74 65/89/65 
# 63 polygons - 18 triangles

