# Blender v2.82 (sub 7) OBJ File: ''
# www.blender.org
mtllib blade.mtl
o blade_obj.lwo
v 0.060770 -10.360860 1.280488
v 0.083460 -8.631330 -1.405261
v 0.083020 -10.360860 -1.352812
v 0.060770 -2.398870 1.280490
v 0.071560 -0.620690 0.002880
v 0.078120 -0.620690 -0.773340
v 0.257080 -8.631330 -1.403791
v 0.234390 -10.360860 1.281958
v 0.256640 -10.360860 -1.351352
v 0.251740 -0.620690 -0.771870
v 0.245180 -0.620690 0.004350
v 0.234390 -2.398870 1.281960
v 0.234390 -10.360860 1.281958
v 0.234390 -2.398870 1.281960
v 0.234390 -10.360860 1.281958
v 0.256640 -10.360860 -1.351352
v 0.234390 -10.360860 1.281958
v 0.234390 -10.360860 1.281958
v 0.083460 -8.631330 -1.405261
v 0.083460 -8.631330 -1.405261
v 0.083020 -10.360860 -1.352812
v 0.083460 -8.631330 -1.405261
v 0.083460 -8.631330 -1.405261
v 0.078120 -0.620690 -0.773340
v 0.234390 -2.398870 1.281960
v 0.245180 -0.620690 0.004350
v 0.234390 -2.398870 1.281960
vn -1.0000 -0.0000 -0.0084
vn -1.0000 0.0000 -0.0085
vn 1.0000 0.0000 0.0084
vn 1.0000 -0.0000 0.0085
vn -0.0085 -0.0000 1.0000
vn 0.0000 -1.0000 0.0000
vn 0.0085 -0.0303 -0.9995
vn 0.0084 -0.0303 -0.9995
vn 0.0084 0.0786 -0.9969
vn -0.0069 0.5835 0.8121
usemtl wood_bed_240807
s off
f 1//1 2//1 3//1
f 1//1 4//1 2//1
f 5//2 6//2 2//2
f 5//1 2//1 4//1
f 7//3 8//3 9//3
f 7//4 10//4 11//4
f 7//3 11//3 12//3
f 12//3 8//3 7//3
f 13//5 14//5 4//5
f 15//5 4//5 1//5
f 3//6 16//6 17//6
f 3//6 18//6 1//6
f 19//7 7//7 9//7
f 20//8 9//8 21//8
f 10//9 7//9 22//9
f 10//9 23//9 24//9
f 25//10 26//10 5//10
f 27//10 5//10 4//10
